<svg xmlns="http://www.w3.org/2000/svg" width="1100" height="1022" viewBox="0 0 1100 1022" role="img" aria-labelledby="title desc">
  <title id="title">Sorriso prima del trattamento con faccette</title>
  <desc id="desc">Illustrazione di un sorriso con denti leggermente irregolari e discromie prima della valutazione estetica.</desc>
  <defs>
    <linearGradient id="bg" x1="0" x2="1" y1="0" y2="1">
      <stop offset="0" stop-color="#0E384C"/>
      <stop offset="1" stop-color="#1E84B5"/>
    </linearGradient>
    <radialGradient id="glow" cx="50%" cy="36%" r="62%">
      <stop offset="0" stop-color="#E8F5FB" stop-opacity=".42"/>
      <stop offset="1" stop-color="#E8F5FB" stop-opacity="0"/>
    </radialGradient>
    <filter id="shadow" x="-20%" y="-20%" width="140%" height="140%">
      <feDropShadow dx="0" dy="22" stdDeviation="28" flood-color="#092838" flood-opacity=".25"/>
    </filter>
  </defs>
  <rect width="1100" height="1022" fill="url(#bg)"/>
  <rect width="1100" height="1022" fill="url(#glow)"/>
  <g opacity=".12" stroke="#E8F5FB" stroke-width="3">
    <path d="M0 170h1100M0 310h1100M0 450h1100M0 590h1100M0 730h1100M0 870h1100"/>
    <path d="M130 0v1022M270 0v1022M410 0v1022M550 0v1022M690 0v1022M830 0v1022M970 0v1022"/>
  </g>
  <g filter="url(#shadow)">
    <path d="M191 479c34-143 179-246 365-244 184 3 323 107 350 247 15 79-16 167-88 226-71 60-180 94-309 88-125-6-228-50-289-113-61-62-82-139-29-204Z" fill="#F28D99"/>
    <path d="M214 505c21-104 146-196 338-195 189 1 312 91 330 193 17 100-107 214-330 214-220 0-373-108-338-212Z" fill="#EC6F82"/>
    <path d="M279 455c75 34 158 51 249 52 96 1 193-17 289-56 15-6 31 4 33 20 3 36-14 83-51 123-55 59-153 92-279 87-123-5-218-44-268-103-30-35-41-72-34-104 4-17 24-27 41-20Z" fill="#FDF5EF"/>
    <g stroke="#E0D7D0" stroke-width="4" stroke-linejoin="round">
      <path d="M273 451c-6 52 1 95 24 125 20 25 56 20 63-11 8-36 6-82 0-130-21-5-41-11-60-18-14 8-24 18-27 34Z" fill="#F5EDE8"/>
      <path d="M359 431c-9 58-7 111 9 143 18 36 62 31 73-8 11-39 10-91 2-145-29-2-57-6-84-12Z" fill="#FFF7F1"/>
      <path d="M444 420c-7 63-3 119 14 149 19 34 65 32 78-7 13-39 11-96 2-157-33 0-65-2-96-6Z" fill="#F6EAE2"/>
      <path d="M541 405c-8 62-5 119 11 152 20 40 72 39 88 0 15-36 11-94-2-154-33 3-66 5-98 5Z" fill="#FFF8F2"/>
      <path d="M637 402c-8 58-3 111 14 141 19 34 63 32 77-3 15-36 9-87-3-139-32 5-64 10-96 13Z" fill="#F4E5DC"/>
      <path d="M725 397c-4 51 5 95 25 119 20 24 56 17 65-12 10-31 4-73-8-116-30 10-60 18-90 25Z" fill="#FFF7F1"/>
    </g>
    <g opacity=".32" fill="#C79C70">
      <ellipse cx="411" cy="474" rx="20" ry="10" transform="rotate(-12 411 474)"/>
      <ellipse cx="518" cy="462" rx="24" ry="11" transform="rotate(8 518 462)"/>
      <ellipse cx="684" cy="459" rx="22" ry="10" transform="rotate(-8 684 459)"/>
    </g>
  </g>
</svg>
